<?xml version="1.0" encoding="UTF-8" standalone="no"?>
<!-- Created with Inkscape (http://www.inkscape.org/) -->

<svg
   xmlns:dc="http://purl.org/dc/elements/1.1/"
   xmlns:cc="http://creativecommons.org/ns#"
   xmlns:rdf="http://www.w3.org/1999/02/22-rdf-syntax-ns#"
   xmlns:svg="http://www.w3.org/2000/svg"
   xmlns="http://www.w3.org/2000/svg"
   xmlns:sodipodi="http://sodipodi.sourceforge.net/DTD/sodipodi-0.dtd"
   xmlns:inkscape="http://www.inkscape.org/namespaces/inkscape"
   width="100"
   height="100"
   viewBox="0 0 26.458333 26.458334"
   version="1.1"
   id="svg2115"
   inkscape:version="0.92.4 (5da689c313, 2019-01-14)"
   sodipodi:docname="cube5x.svg">
  <defs
     id="defs2109" />
  <sodipodi:namedview
     id="base"
     pagecolor="#ffffff"
     bordercolor="#666666"
     borderopacity="1.0"
     inkscape:pageopacity="0.0"
     inkscape:pageshadow="2"
     inkscape:zoom="1.4"
     inkscape:cx="6.4546999"
     inkscape:cy="165.74041"
     inkscape:document-units="mm"
     inkscape:current-layer="layer1"
     showgrid="false"
     units="px"
     inkscape:window-width="1920"
     inkscape:window-height="1001"
     inkscape:window-x="-9"
     inkscape:window-y="-9"
     inkscape:window-maximized="1" />
  <metadata
     id="metadata2112">
    <rdf:RDF>
      <cc:Work
         rdf:about="">
        <dc:format>image/svg+xml</dc:format>
        <dc:type
           rdf:resource="http://purl.org/dc/dcmitype/StillImage" />
        <dc:title></dc:title>
      </cc:Work>
    </rdf:RDF>
  </metadata>
  <g
     inkscape:label="Layer 1"
     inkscape:groupmode="layer"
     id="layer1"
     transform="translate(0,-270.54165)">
    <g
       transform="matrix(0.18481781,0,0,0.18481781,-194.92827,465.80305)"
       id="g2092">
      <path
         style="stroke-width:0.09787367"
         inkscape:connector-curvature="0"
         d="m 1078.1066,-973.87462 -20.3577,7.63414 c -1.8302,0.68512 -3.0439,2.44684 -3.0439,4.40432 v 22.03136 c 0,1.7813 1.0081,3.406 2.5937,4.19878 l 20.3577,10.17886 c 1.3213,0.66554 2.8775,0.66554 4.1988,0 l 20.3577,-10.17886 c 1.5953,-0.79278 2.5937,-2.42726 2.5937,-4.19878 v -22.03136 c 0,-1.95748 -1.2137,-3.70941 -3.0439,-4.39453 l -20.3577,-7.63415 c -1.0571,-0.41106 -2.2316,-0.41106 -3.2984,-0.01 z m 1.6541,6.07795 18.7917,7.0469 v 0.10767 l -18.7917,7.63414 -18.7918,-7.63414 v -0.10767 z m 3.1319,34.84303 v -14.57339 l 15.6598,-6.36179 v 13.10528 z"
         id="path1271" />
      <path
         style="stroke-width:0.09787367"
         inkscape:connector-curvature="0"
         d="m 1124.842,-973.87462 -20.3577,7.63414 c -1.8303,0.68512 -3.0439,2.44685 -3.0439,4.40432 v 22.03137 c 0,1.78129 1.0081,3.40599 2.5937,4.19877 l 20.3577,10.17886 c 1.3213,0.66554 2.8775,0.66554 4.1988,0 l 20.3577,-10.17886 c 1.5953,-0.79278 2.5936,-2.42726 2.5936,-4.19877 v -22.03137 c 0,-1.95747 -1.2136,-3.70941 -3.0438,-4.39453 l -20.3578,-7.63415 c -1.057,-0.41106 -2.2315,-0.41106 -3.2983,-0.01 z m 1.6541,6.07795 18.7917,7.04691 v 0.10766 l -18.7917,7.63414 -18.7918,-7.63414 v -0.10766 z m 3.1319,34.84303 v -14.57339 l 15.6598,-6.36179 v 13.10529 z"
         id="path1271-9" />
      <path
         style="stroke-width:0.09787367"
         inkscape:connector-curvature="0"
         d="m 1101.4751,-1009.3042 -20.3577,7.6341 c -1.8302,0.6852 -3.0439,2.44688 -3.0439,4.40436 v 22.03136 c 0,1.7813 1.0081,3.406 2.5937,4.19878 l 20.3577,10.17885 c 1.3213,0.66555 2.8775,0.66555 4.1988,0 l 20.3577,-10.17885 c 1.5954,-0.79278 2.5937,-2.42727 2.5937,-4.19878 v -22.03136 c 0,-1.95748 -1.2137,-3.70946 -3.0439,-4.39456 l -20.3577,-7.6341 c -1.0571,-0.4111 -2.2315,-0.4111 -3.2984,-0.01 z m 1.6541,6.0779 18.7917,7.04695 v 0.10766 l -18.7917,7.63415 -18.7918,-7.63415 v -0.10766 z m 3.132,34.84307 v -14.57338 l 15.6597,-6.36179 v 13.10528 z"
         id="path1271-6" />
      <path
         style="stroke-width:0.09787367"
         inkscape:connector-curvature="0"
         d="m 1171.164,-973.87474 -20.3577,7.63414 c -1.8302,0.68512 -3.0439,2.44685 -3.0439,4.40432 v 22.03137 c 0,1.7813 1.0081,3.40599 2.5937,4.19877 l 20.3577,10.17886 c 1.3213,0.66554 2.8775,0.66554 4.1988,0 l 20.3577,-10.17886 c 1.5953,-0.79278 2.5937,-2.42726 2.5937,-4.19877 v -22.03137 c 0,-1.95747 -1.2137,-3.70941 -3.0439,-4.39453 l -20.3577,-7.63414 c -1.0571,-0.41107 -2.2316,-0.41107 -3.2984,-0.01 z m 1.6541,6.07795 18.7917,7.04691 v 0.10766 l -18.7917,7.63415 -18.7918,-7.63415 v -0.10766 z m 3.1319,34.84303 v -14.57339 l 15.6598,-6.36179 v 13.10529 z"
         id="path1271-9-4" />
      <path
         style="stroke-width:0.09787367"
         inkscape:connector-curvature="0"
         d="m 1147.9528,-1009.3042 -20.3576,7.6341 c -1.8303,0.6852 -3.0439,2.44688 -3.0439,4.40436 v 22.03136 c 0,1.7813 1.0081,3.406 2.5936,4.19878 l 20.3577,10.17885 c 1.3213,0.66555 2.8775,0.66555 4.1988,0 l 20.3577,-10.17885 c 1.5953,-0.79278 2.5936,-2.42727 2.5936,-4.19878 v -22.03136 c 0,-1.95748 -1.2136,-3.70946 -3.0438,-4.39456 l -20.3577,-7.6341 c -1.057,-0.4111 -2.2315,-0.4111 -3.2984,-0.01 z m 1.6541,6.0779 18.7917,7.04696 v 0.10765 l -18.7917,7.63415 -18.7917,-7.63415 v -0.10765 z m 3.132,34.84307 v -14.57338 l 15.6597,-6.36179 v 13.10528 z"
         id="path1271-6-5" />
      <path
         style="stroke-width:0.09787367"
         inkscape:connector-curvature="0"
         d="m 1124.6552,-1044.6283 -20.3577,7.6342 c -1.8303,0.6851 -3.0439,2.4468 -3.0439,4.4043 v 22.0314 c 0,1.7813 1.0081,3.406 2.5936,4.1988 l 20.3577,10.17881 c 1.3213,0.66555 2.8775,0.66555 4.1988,0 l 20.3577,-10.17881 c 1.5953,-0.7928 2.5937,-2.4273 2.5937,-4.1988 v -22.0314 c 0,-1.9575 -1.2137,-3.7094 -3.0439,-4.3945 l -20.3577,-7.6342 c -1.057,-0.411 -2.2315,-0.411 -3.2983,-0.01 z m 1.654,6.078 18.7917,7.0469 v 0.1077 l -18.7917,7.6341 -18.7917,-7.6341 v -0.1077 z m 3.132,34.843 v -14.5734 l 15.6597,-6.3617 v 13.1052 z"
         id="path1271-6-5-1" />
    </g>
  </g>
</svg>
